<svg width="1440" height="3119" viewBox="0 0 1440 3119" fill="none" xmlns="http://www.w3.org/2000/svg">
    <mask id="mask0" mask-type="alpha" maskUnits="userSpaceOnUse" x="0" y="0" width="1440" height="3119">
        <rect y="0.696289" width="1440" height="3117.42" fill="white" />
    </mask>
    <g mask="url(#mask0)">
        <path
            d="M239.383 2372.79C219.753 2373.8 201.423 2386.58 184.835 2405.01C179.407 2411.03 174.396 2416.08 175.397 2425.49C175.953 2430.67 177.149 2436.66 179.805 2440.46C184.758 2447.51 193.749 2446.34 198.882 2445.17C212.324 2442.06 227.645 2444.96 238.786 2431.69C259.118 2428.41 273.575 2410.88 290.305 2399.22C299.535 2392.8 306.165 2380.89 314.095 2371.6C315.349 2370.14 317.436 2368.47 318.821 2368.83C320.085 2369.15 321.352 2371.97 321.862 2373.95C323.384 2380.08 323.953 2385.71 320.121 2391.63C314.498 2400.32 309.856 2409.96 304.95 2419.32C300.751 2427.32 295.334 2432.74 287.489 2435.02C283.535 2436.17 279.991 2439.6 276.448 2442.37C272.166 2445.68 276.185 2447.54 277.842 2448.11C288.461 2451.75 296.281 2461.38 305.757 2467.53C317.143 2474.9 320.077 2486.51 316.33 2503.06C312.171 2521.42 307.588 2539.67 293.731 2551.17C289.133 2566.48 275.391 2571.55 268.768 2584.71C266.934 2588.34 237.295 2607.39 232.657 2609.57C230.706 2610.48 229.051 2612.33 227.273 2613.75C230.351 2616.92 233.107 2621.24 236.643 2622.86C239.236 2624.04 243.773 2622.91 245.901 2620.66C259.457 2606.24 276.519 2604.12 293.061 2599.96C305.768 2596.77 317.928 2597.28 328.718 2607.79C332.801 2611.76 335.302 2610.22 338.057 2605.39C340.082 2601.84 343.535 2599.59 345.988 2596.34C348.007 2593.66 349.388 2588.53 351.419 2596.33C355.545 2612.18 353.316 2625.76 346.142 2640.29C329.744 2673.49 308.579 2700.97 283.468 2723.73C273.875 2732.41 262.907 2739.82 250.435 2742.54C244.613 2743.82 237.648 2734.32 233.286 2743.84C230.427 2750.07 229.409 2757.81 228.438 2765.08C224.319 2795.68 213.094 2822.47 199.767 2848.07C195.794 2855.7 190.461 2862.36 185.225 2868.85C181.898 2872.97 177.718 2873.6 173.2 2869.88C168.725 2866.21 167.457 2861.21 169.19 2855.85C173.297 2843.25 177.798 2830.82 182.573 2818.58C193.404 2790.88 196.734 2760.53 202.611 2731.09C202.861 2729.81 201.965 2728.15 201.588 2726.66C200.291 2727.34 198.974 2727.98 197.716 2728.74C185.332 2736.19 172.786 2743.35 158.781 2744.53C134.153 2746.62 109.699 2743.96 87.4418 2729.86C72.2643 2720.25 62.8584 2702.6 55.3984 2684.02C52.1233 2675.85 49.2539 2667.33 47.2136 2658.64C44.9598 2649.06 47.766 2639.14 46.9363 2629.03C46.2413 2620.55 51.9693 2610.69 60.5939 2606.22C68.8942 2601.91 76.7606 2596.3 84.52 2590.66C85.7769 2589.74 86.3564 2583.66 85.7719 2583.26C75.0122 2575.78 69.7531 2562.26 62.4785 2551.23C51.6814 2534.83 43.411 2515.32 44.1027 2494.62C44.6636 2477.64 41.0932 2462.25 39.213 2446.19C37.8211 2434.39 46.4394 2420.43 55.8955 2421.8C64.8076 2423.09 73.4912 2427.06 82.2849 2429.82C84.239 2430.42 86.2069 2430.88 88.1849 2431.4C87.0796 2428.88 86.1871 2426.19 84.8499 2423.86C77.6749 2411.47 72.089 2398.56 67.8964 2383.89C64.5837 2372.28 60.0108 2360.97 58.9566 2348.77C56.8172 2324.05 56.5364 2299.29 59.3955 2274.54C61.4331 2256.9 69.4217 2243.17 77.4692 2229.57C79.7251 2225.74 85.4143 2225.1 87.9377 2221.37C91.3374 2216.33 93.0307 2217.18 93.1712 2222.66C93.4064 2232.31 98.9291 2234.12 104.532 2237.31C109.813 2240.32 114.401 2245.19 119.328 2249.16C124.577 2253.4 128.507 2251.44 128.576 2243.38C128.813 2215.39 139.665 2191.64 148.043 2167.1C153.391 2151.46 160.831 2136.72 168.668 2122.68C175.273 2110.85 184.163 2101.43 196.685 2098.93C208.548 2096.55 216.265 2101.3 218.601 2116.4C220.571 2129.08 227.276 2141.76 221.5 2155.3C225.3 2175.66 221.922 2195.9 221.126 2216.13C220.891 2222.15 224.268 2220.28 225.21 2219.36C241.171 2203.65 260.912 2201.5 279.92 2196.65C287.122 2194.81 292.976 2199.57 299.47 2201.54C307.291 2203.9 309.448 2210.81 311.807 2218.33C312.236 2219.68 313.077 2220.86 313.715 2222.1C314.882 2220.65 316.428 2219.43 317.132 2217.69C319.902 2210.93 322.043 2203.72 325.207 2197.28C326.307 2195.05 326.357 2188.08 331.066 2191.95C333.449 2193.9 335.758 2197.37 336.542 2200.68C340.826 2218.74 336.363 2235.68 329.161 2250.49C317.384 2274.67 304.862 2298.47 288.98 2319.07C285.741 2323.26 281.227 2325.95 277.461 2329.56C273.955 2332.92 275.897 2333 278.99 2334.23C289.378 2338.38 297.895 2345.78 304.901 2356.5C308.11 2361.42 310.107 2365.42 307.724 2370.89C306.04 2374.75 304.439 2380.29 299.124 2376.49C298.564 2376.08 298.066 2375.44 297.482 2375.19C289.422 2371.7 281.378 2365.68 273.287 2365.46C263.036 2365.13 252.8 2369.61 239.383 2372.79ZM76.4226 2643.62C78.1965 2654.25 89.6648 2681.99 96.4314 2688.73C103.53 2695.79 111.207 2702.26 119.3 2707.36C123.911 2710.28 129.843 2710.48 135.227 2710.95C143.908 2711.68 153.041 2709.71 161.127 2710.8C171.918 2712.24 180.582 2712.43 188.745 2703.34C191.1 2700.7 197.661 2704.42 196.723 2696.66C196.104 2691.56 196.404 2685.92 191.874 2681.92C185.248 2676.09 179.651 2668.43 172.953 2662.78C156.862 2649.14 140.387 2637.43 121.063 2630.21C106.524 2624.76 93.4761 2622.42 79.1562 2626.37C75.1921 2627.46 73.5611 2629.22 74.7863 2634.26C75.5447 2637.28 75.9061 2640.48 76.4226 2643.62ZM59.1406 2454.68C58.766 2456.35 57.4838 2458.92 57.8303 2461.13C60.2228 2476.78 61.778 2492.86 65.9722 2507.84C69.0238 2518.72 74.9256 2528.93 80.9958 2537.98C91.297 2553.3 105.448 2563.26 119.176 2573.18C124.539 2577.04 132.631 2579.3 138.304 2577.36C145.406 2574.92 151.853 2568.07 157.235 2561.47C158.373 2560.07 153.659 2551.6 151.724 2546.31C146.145 2531.04 136.572 2519.45 127.401 2507.63C124.327 2503.66 118.962 2502.18 116.305 2498C102.319 2476.05 80.4538 2469.16 62.7449 2454.38C62.3258 2454.06 61.5223 2454.45 59.1406 2454.68ZM210.634 2325.77C218.904 2321.21 229.503 2322.11 239.587 2314.78C267.729 2294.31 289.545 2266.87 308.04 2234.6C309.939 2231.28 310.108 2230.11 306.032 2229.4C289.123 2226.51 273.298 2232.97 257.101 2236.34C251.802 2245.6 241.614 2244.37 235.212 2251.64C229.086 2258.61 221.635 2263.84 215.557 2270.87C202.046 2286.45 192.456 2305.88 182.691 2325.01C182.215 2325.93 185.18 2331.42 186.15 2331.27C193.836 2330.05 201.463 2327.97 210.634 2325.77ZM86.9758 2271.87C85.7302 2275.86 83.2365 2279.69 83.7479 2282.81C86.4858 2299.55 84.3138 2316.54 87.7223 2333.44C95.9147 2374.08 112.044 2406.83 143.035 2427C145.835 2428.81 147.103 2429.9 147.293 2424.67C147.521 2418.07 148.641 2411.54 149.106 2404.94C149.78 2395.45 153.094 2384.27 150.157 2376.78C144.175 2361.43 138.501 2345.75 131.653 2330.8C121.52 2308.68 107.813 2290.95 91.8715 2275.36C90.5593 2274.07 88.9194 2273.24 86.9758 2271.87ZM248.613 2483.25C247.075 2484.3 241.94 2486.89 237.676 2490.91C229.099 2498.97 220.714 2507.41 212.773 2516.4C205.151 2525.04 202.487 2538.06 208.336 2548.26C211.852 2554.41 214.062 2560.21 214.806 2566.96C215.566 2573.95 218.494 2574.2 222.824 2572.67C224.68 2572.01 226.923 2572.31 228.509 2571.18C254.623 2552.74 278.444 2531.08 294.982 2499.39C299.33 2491.07 298.147 2486.73 290.894 2483.39C287.576 2481.87 257.808 2481.05 248.613 2483.25ZM156.369 2269.94C158.439 2274.15 160.98 2279.22 163.443 2284.35C164.645 2286.86 165.712 2289.45 166.846 2292C168.279 2289.35 170.003 2286.87 171.075 2284.02C172.851 2279.29 173.969 2274.17 175.759 2269.45C178.904 2261.17 183.022 2253.36 185.462 2244.78C188.011 2235.8 189.198 2226.22 190.735 2216.85C191.563 2211.8 192.016 2206.62 192.402 2201.49C193.996 2179.94 195.334 2158.36 194.331 2136.65C194.228 2134.54 192.95 2132.49 192.212 2130.42C191.034 2131.74 189.594 2132.84 188.7 2134.42C170.978 2165.14 164.588 2201.43 156.957 2236.92C154.83 2246.76 156.47 2257.87 156.369 2269.94ZM248.482 2698.76C253.136 2696.98 257.49 2694.32 261.801 2691.85C274.207 2684.75 282.892 2672.39 293.867 2663.61C307.152 2652.97 317.016 2638.78 325.136 2622.46C325.785 2621.15 325.39 2619.03 325.478 2617.3C324.236 2617.41 322.278 2616.93 321.879 2617.71C317.421 2626.27 309.749 2625.62 303.145 2626.74C281.797 2630.42 264.671 2645.27 246.496 2657.26C238.908 2662.28 233.953 2669.53 238.055 2681.71C239.416 2685.76 239.584 2690.96 238.883 2695.26C238.361 2698.46 236.326 2700.9 240.847 2700.5C243.418 2700.27 245.937 2699.36 248.482 2698.76ZM194.972 2635.27C194.837 2635.29 194.701 2635.31 194.555 2635.34C193.378 2628.34 192.486 2621.23 190.907 2614.39C190.103 2610.95 188.459 2607.47 186.489 2604.82C182.75 2599.83 178.514 2595.4 174.481 2590.75C171.11 2595.58 168.002 2600.78 164.239 2605.09C162.614 2606.97 159.428 2606.61 157.261 2607.96C153.237 2610.49 153.926 2614.13 157.036 2616.9C166.281 2625.03 176.362 2631.69 183.744 2642.85C187.994 2649.24 193.076 2654.8 197.766 2660.74C196.843 2652.25 195.92 2643.76 194.972 2635.27ZM193.065 2492.35C197.48 2488.4 203.818 2484.72 203.467 2482.63C202.354 2475.86 197.822 2482.49 194.841 2481.33C192.575 2480.44 190.47 2478.87 188.181 2478.22C187.359 2477.98 186.222 2479.54 185.236 2480.27C187.83 2484.3 190.452 2488.35 193.065 2492.35ZM151.198 2472.11C150.812 2469.81 150.815 2465.86 149.969 2465.55C147.208 2464.56 144.151 2464.67 141.225 2464.89C140.304 2464.95 139.488 2466.7 138.605 2467.67C142.468 2472.28 146.316 2476.88 150.271 2481.36C150.315 2481.4 152.238 2479.79 152.224 2478.96C152.183 2476.69 151.569 2474.39 151.198 2472.11Z"
            fill="rgba(55, 97, 175, 0.397)" fill-opacity="0.1" />
        <path
            d="M69.2997 219.117C80.5075 237.117 82.6039 261.263 79.6542 287.362C78.6959 295.896 78.1677 303.462 70.9176 308.399C66.9176 311.117 61.9579 313.769 57.6612 313.772C49.6734 313.753 45.0386 305.071 42.7536 299.797C36.7907 285.972 25.4364 274.207 28.0494 256.125C18.0231 236.094 21.6339 212.436 19.714 190.404C18.6426 178.259 23.0377 165.009 24.7819 152.239C25.053 150.224 24.9692 147.338 23.8688 146.34C22.8764 145.419 20.1196 146.039 18.4065 146.818C13.1505 149.268 8.82761 152.252 6.97188 159.31C4.24835 169.668 0.251471 179.752 -3.37789 189.887C-6.48494 198.563 -7.02119 206.712 -3.87489 215.074C-2.28242 219.283 -2.55617 224.546 -2.35965 229.396C-2.10145 235.24 -5.85745 232.836 -7.26375 231.719C-16.2806 224.572 -27.8369 223.617 -37.9296 219.032C-50.0534 213.522 -60.0353 218.113 -69.4511 231.678C-79.9014 246.735 -90.0129 262.095 -89.7255 281.486C-97.7496 295.038 -92.9909 310.344 -98.2649 324.356C-99.7157 328.228 -95.1872 366.272 -93.908 371.724C-93.3695 374.018 -93.6728 376.63 -93.5933 379.081C-97.7037 378.32 -102.427 378.555 -105.72 376.429C-108.128 374.864 -110.086 370.15 -109.782 366.867C-107.824 345.934 -116.689 329.521 -123.793 312.301C-129.248 299.07 -136.992 288.622 -150.969 285.579C-156.253 284.424 -156.682 281.255 -154.946 275.827C-153.666 271.835 -154.173 267.385 -153.366 263.201C-152.697 259.752 -149.908 255.35 -156.658 258.388C-170.36 264.552 -178.602 274.936 -184.51 290.285C-198.012 325.365 -204.582 361.126 -205.412 397.449C-205.726 411.321 -204.298 425.616 -198.65 438.345C-196.02 444.291 -185.079 444.574 -189.156 454.329C-191.821 460.719 -196.675 466.416 -201.22 471.777C-220.339 494.376 -232.452 520.907 -242.45 548.563C-245.426 556.804 -246.897 565.652 -248.301 574.305C-249.196 579.805 -247.099 583.892 -241.733 585.593C-236.419 587.277 -232.118 585.305 -229.385 580.452C-222.974 569.01 -216.923 557.325 -211.177 545.52C-198.179 518.772 -178.758 497.027 -161.527 473.592C-160.772 472.575 -159.054 472.339 -157.771 471.749C-157.465 473.319 -157.117 474.881 -156.894 476.468C-154.636 492.044 -152.077 507.584 -144.411 520.715C-130.933 543.811 -114.215 563.818 -90.7396 574.789C-74.729 582.267 -56.5531 579.667 -38.8914 574.758C-31.1362 572.602 -23.3728 569.864 -15.9951 566.289C-7.85578 562.348 -2.54968 553.719 5.09626 548.192C11.5114 543.554 14.999 532.377 12.9232 521.971C10.924 511.958 10.1117 501.52 9.39016 491.153C9.2767 489.471 13.2164 485.196 13.8561 485.464C25.6726 490.357 38.4156 486.641 50.6303 486.245C68.7705 485.647 87.5761 480.885 101.782 467.451C113.439 456.437 126.481 450.065 138.968 441.784C148.153 435.705 152.781 419.431 146.07 411.911C139.751 404.817 131.67 399.592 124.385 393.514C122.772 392.158 121.251 390.701 119.683 389.272C122.139 388.686 124.578 387.813 127.037 387.553C140.15 386.228 152.664 383.176 165.574 377.801C175.788 373.544 186.554 370.587 195.81 363.968C214.575 350.55 232.241 335.462 247.992 317.601C259.22 304.87 264.07 289.294 268.796 273.744C270.128 269.379 267.128 263.945 268.233 259.399C269.73 253.267 268.1 252.296 264.141 255.568C257.182 261.334 252.547 257.569 246.892 254.585C241.563 251.77 235.335 250.727 229.537 248.825C223.358 246.802 222.356 242.108 228.009 237.055C247.638 219.513 257.835 195.191 270.08 172.58C277.885 158.158 283.786 142.439 288.944 126.809C293.294 113.631 294.552 99.9279 288.718 87.2915C283.196 75.317 275.156 71.4259 263.071 78.7083C252.911 84.8241 239.883 86.7389 233.822 100.241C217.131 109.486 204.881 125.012 191.072 138.247C186.959 142.185 186.233 138.034 186.313 136.63C187.719 112.771 177.252 93.9656 169.142 74.131C166.07 66.6155 159.154 64.3804 153.819 59.8519C147.398 54.3944 141.207 56.7643 134.467 59.3287C133.249 59.7876 131.905 59.7733 130.64 59.9789C130.96 58.0442 130.884 55.9188 131.681 54.2219C134.781 47.5793 138.572 41.2209 141.202 34.4297C142.11 32.0748 147.005 27.7124 141.413 25.9402C138.582 25.043 134.733 25.1445 131.914 26.5039C116.555 33.8966 107.3 48.336 101.207 63.8857C91.274 89.2876 82.0616 115.113 77.1489 141.933C76.15 147.4 76.9916 153.06 76.7278 158.63C76.4809 163.816 75.2458 162.146 72.4981 160.171C63.2647 153.54 52.8591 150.589 41.036 151.022C35.6091 151.23 31.5687 151.943 29.154 157.438C27.4505 161.317 24.5067 166.167 30.4193 168.518C31.0483 168.76 31.8035 168.805 32.3334 169.168C39.6912 174.142 48.827 177.536 53.8991 184.559C60.3569 193.429 63.4023 205.269 69.2997 219.117ZM-23.1163 531.128C-31.7021 536.14 -58.2619 543.167 -67.1329 541.352C-76.4342 539.443 -85.661 536.649 -94.183 532.648C-99.0423 530.372 -102.784 525.244 -106.383 520.767C-112.174 513.538 -116.323 504.23 -122.006 497.749C-129.577 489.09 -134.966 481.533 -133.5 468.676C-133.065 464.958 -139.678 461.454 -133.627 457.48C-129.643 454.865 -125.844 451.109 -120.265 452.639C-112.123 454.894 -103.317 455.108 -95.2533 457.533C-75.8522 463.335 -57.5753 470.666 -40.7419 483.301C-28.0665 492.799 -18.4875 502.897 -12.588 518.023C-10.9473 522.204 -11.2062 524.743 -15.5107 526.78C-18.0992 527.974 -20.5792 529.636 -23.1163 531.128ZM120.873 429.399C119.921 430.765 118.884 433.491 117.112 434.554C104.597 442.133 92.2967 450.712 79.1667 456.276C69.6261 460.314 58.8241 461.418 48.7475 461.647C31.668 462.017 16.0423 455.657 0.700548 449.647C-5.28817 447.294 -11.7952 441.527 -13.8679 435.303C-16.4581 427.507 -15.531 417.555 -14.1361 408.704C-13.836 406.828 -4.9899 405.755 -0.0783441 404.192C14.0971 399.673 28.0976 400.97 42.0206 401.765C46.6869 402.031 50.9902 405.864 55.5616 405.623C79.5575 404.412 97.7029 419.499 118.898 426.022C119.377 426.195 119.587 427.15 120.873 429.399ZM119.976 215.444C118.177 205.299 111.107 196.473 110.164 183.004C107.541 145.413 113.683 109.105 125.257 72.7427C126.449 69.0049 127.175 68.1301 130.146 71.3028C142.459 84.4765 147.497 102.493 154.953 118.914C151.628 129.341 158.682 137.599 157.429 147.772C156.229 157.508 157.056 167.345 155.781 177.078C152.971 198.694 145.067 219.215 137.481 239.708C137.121 240.698 131.44 241.475 130.959 240.522C127.149 232.967 123.989 224.926 119.976 215.444ZM233.132 291.533C231.072 295.104 229.878 299.686 227.365 301.164C213.877 309.107 203.19 321.554 189.179 329.006C155.493 346.923 122.563 352.927 89.4963 337.985C86.5157 336.629 84.9741 336.183 88.5587 332.771C93.08 328.485 97.0122 323.449 101.396 318.947C107.693 312.473 113.576 302.618 120.657 300.573C135.13 296.366 149.653 291.676 164.375 288.479C186.155 283.749 207.006 284.899 227.699 289.356C229.403 289.723 230.987 290.658 233.132 291.533ZM-14.3471 279.361C-14.1542 281.371 -12.8648 287.52 -13.1183 293.787C-13.604 306.37 -14.4803 319.024 -16.0116 331.623C-17.4854 343.719 -25.066 354.14 -35.8227 355.28C-42.3042 355.977 -47.7413 357.611 -52.9625 361.134C-58.366 364.793 -60.3184 362.355 -61.868 357.575C-62.5287 355.524 -64.1044 353.725 -64.2636 351.617C-67.0923 317.08 -66.254 282.578 -53.8977 248.305C-50.6589 239.302 -46.8768 237.663 -40.1137 242.016C-37.0264 244.013 -18.3702 269.854 -14.3471 279.361ZM192.371 228.901C188.134 229.681 183.011 230.57 177.89 231.568C175.392 232.054 172.909 232.718 170.418 233.294C171.421 230.384 172.132 227.317 173.49 224.606C175.755 220.104 178.692 215.944 180.94 211.436C184.882 203.523 187.904 195.036 192.484 187.563C197.279 179.746 203.328 172.761 209.016 165.595C212.08 161.736 215.462 158.129 218.852 154.611C233.11 139.851 247.547 125.299 263.492 112.742C265.049 111.524 267.274 111.385 269.186 110.756C268.969 112.615 269.064 114.573 268.493 116.341C257.543 151.061 235.785 179.192 215.338 207.933C209.68 215.909 200.835 221.337 192.371 228.901ZM-166.53 412.956C-168.102 407.736 -168.862 402.231 -169.735 396.886C-172.254 381.509 -168.794 366.164 -169.251 351.008C-169.802 332.659 -165.764 315.137 -159.165 297.841C-158.628 296.452 -156.889 295.487 -155.723 294.34C-155.047 295.507 -153.519 296.944 -153.826 297.778C-157.17 307.03 -152.052 313.417 -148.837 319.96C-138.474 341.137 -138.571 365.497 -136.006 389.012C-134.944 398.836 -137.062 407.717 -148.159 411.631C-151.844 412.932 -155.618 416.003 -158.235 419.29C-160.174 421.729 -160.661 425.041 -163.126 420.794C-164.528 418.378 -165.414 415.585 -166.53 412.956ZM-89.1895 421.006C-89.1189 421.136 -89.0484 421.267 -88.9846 421.417C-83.3214 418.121 -77.7618 414.511 -71.966 411.669C-69.0508 410.254 -65.5919 409.552 -62.5267 409.657C-56.7252 409.871 -51.0232 410.877 -45.2898 411.568C-46.6575 417.546 -48.4477 423.521 -49.2059 429.519C-49.5439 432.119 -47.3579 434.718 -46.9984 437.475C-46.3387 442.601 -49.3347 444.251 -53.1743 443.208C-64.5339 440.062 -75.3628 435.265 -87.7231 435.637C-94.8224 435.835 -101.837 434.781 -108.877 434.305C-102.318 429.863 -95.7591 425.422 -89.1895 421.006ZM12.9482 334.173C13.0589 327.818 11.8111 319.927 13.498 318.945C18.9577 315.737 17.0258 323.854 19.6588 325.772C21.6604 327.229 24.0513 328.117 25.8988 329.742C26.5658 330.322 26.1558 332.293 26.2381 333.619C21.8152 333.82 17.3576 334.011 12.9482 334.173ZM52.6701 358.698C54.5257 357.618 57.3165 355.166 58.049 355.723C60.4215 357.558 62.2006 360.332 63.8235 363.056C64.3374 363.912 63.6004 365.714 63.4512 367.097C57.8471 366.534 52.2603 365.976 46.6927 365.251C46.6406 365.235 46.6072 362.538 47.2047 362.034C48.8324 360.665 50.8318 359.783 52.6701 358.698Z"
            fill="rgba(55, 97, 175, 0.397)" fill-opacity="0.1" />
        <path
            d="M1051.38 818.88C1024.5 844.989 1009.08 886.306 1000.73 933.502C997.994 948.932 995.053 962.455 1004.15 974.64C1009.17 981.351 1015.75 988.415 1022.6 990.51C1035.35 994.364 1047.09 981.395 1053.37 973.261C1069.79 951.921 1093.79 936.816 1098.66 903.839C1124.67 873.596 1130.74 830.357 1144.82 792.661C1152.6 771.887 1152.22 746.516 1155.82 723.278C1156.4 719.612 1157.97 714.593 1160.23 713.377C1162.27 712.245 1166.36 714.675 1168.7 716.874C1175.86 723.726 1181.26 731.062 1180.69 744.341C1179.86 763.827 1181.19 783.452 1181.91 802.99C1182.53 819.715 1179.31 834.262 1170.11 847.394C1165.46 853.999 1163.27 863.361 1160.53 871.769C1157.19 881.889 1164.39 879.503 1167.19 878.228C1185.14 870.084 1204.05 874.032 1222.44 870.903C1244.54 867.14 1258.16 880.047 1266.4 908.413C1275.53 939.899 1283.98 971.749 1273.82 1005.61C1279.85 1033.28 1264.6 1057.8 1266.01 1084.93C1266.38 1092.43 1240.14 1156.93 1235.37 1165.87C1233.36 1169.63 1232.54 1174.35 1231.19 1178.61C1238.13 1179.28 1245.54 1181.99 1251.86 1179.86C1256.48 1178.29 1261.96 1170.98 1263.12 1165.07C1270.46 1127.42 1292.81 1102.95 1312.75 1076.22C1328.07 1055.67 1345.64 1041.12 1369.46 1042.58C1378.46 1043.13 1380.73 1037.78 1380.68 1027.42C1380.63 1019.8 1383.67 1012.24 1384.47 1004.51C1385.13 998.14 1382.88 989.066 1392.13 997.676C1410.9 1015.15 1418.85 1037.37 1420.6 1067.15C1424.59 1135.23 1417.19 1201.13 1400.35 1265.22C1393.91 1289.7 1384.49 1314.07 1369.11 1333.64C1361.95 1342.79 1344.35 1337.96 1345.98 1357.05C1347.03 1369.55 1351.93 1381.9 1356.49 1393.51C1375.69 1442.44 1381.74 1494.85 1383.86 1548.21C1384.48 1564.11 1382.4 1580.34 1380.32 1596.19C1378.99 1606.27 1373.6 1612.42 1364.2 1612.79C1354.88 1613.15 1349 1607.6 1347.07 1597.76C1342.57 1574.58 1338.76 1551.15 1335.5 1527.66C1328.14 1474.43 1308.04 1426.86 1292.28 1377.38C1291.58 1375.23 1288.96 1373.98 1287.21 1372.32C1285.94 1374.93 1284.6 1377.5 1283.45 1380.17C1272.06 1406.38 1260.21 1432.39 1241.41 1451.68C1208.37 1485.62 1171.7 1512.56 1128.77 1520.38C1099.49 1525.7 1071.81 1512.3 1046.09 1495.1C1034.8 1487.55 1023.79 1478.97 1013.81 1469.11C1002.8 1458.24 998.648 1440.53 989.217 1427.12C981.305 1415.86 981.331 1394.57 989.846 1377.33C998.041 1360.75 1004.56 1342.84 1010.89 1325.02C1011.91 1322.12 1007.77 1312.71 1006.61 1312.87C985.32 1315.7 966.854 1302.98 947.57 1296.34C918.936 1286.47 891.324 1268.97 875.384 1238.5C862.3 1213.52 844.684 1196 828.909 1175.41C817.3 1160.28 818.056 1129.49 832.521 1119.57C846.147 1110.21 861.648 1104.98 876.307 1097.87C879.558 1096.27 882.711 1094.46 885.928 1092.72C882.304 1090.49 878.85 1087.78 875.058 1086.12C854.806 1077.42 836.373 1065.98 818.469 1050.28C804.308 1037.84 788.614 1027.42 777.162 1011.31C753.942 978.652 733.311 943.602 717.12 904.621C705.579 876.835 705.632 847.166 705.871 817.601C705.93 809.299 713.432 801.23 713.943 792.722C714.62 781.242 717.706 780.331 722.385 787.995C730.6 801.491 739.875 797.145 750.388 794.664C760.294 792.321 770.75 793.523 780.948 793.008C791.815 792.467 795.76 784.725 789.271 773.114C766.736 732.806 762.636 685.199 754.411 639.595C749.176 610.51 747.624 580.077 747.214 550.163C746.864 524.94 751.712 500.301 767.335 480.983C782.131 462.674 796.899 459.763 812.532 478.411C825.68 494.078 845.5 503.774 848.416 530.397C870.415 554.728 882.188 587.912 897.595 617.836C902.185 626.743 905.419 619.818 905.994 617.317C915.681 574.799 941.781 546.918 964.635 516.086C973.293 504.403 985.441 503.849 996.214 498.504C1009.18 492.059 1017.87 499.227 1027.34 507.003C1029.06 508.4 1031.21 509.028 1033.12 510.004C1033.58 506.456 1034.76 502.767 1034.34 499.404C1032.72 486.249 1029.85 473.255 1029.05 460.068C1028.78 455.497 1023.15 445.467 1032.96 445.08C1037.92 444.884 1044.01 446.935 1047.83 450.69C1068.63 471.125 1076.17 500.946 1078.11 531.175C1081.25 580.547 1083.03 630.311 1077.45 679.727C1076.31 689.799 1072.14 699.315 1069.78 709.21C1067.58 718.422 1070.38 716.096 1075.75 713.969C1093.79 706.835 1111.87 706.723 1130.51 713.236C1139.06 716.24 1145.15 719.455 1146.25 730.265C1147.03 737.895 1149.3 747.833 1138.69 749.077C1137.57 749.197 1136.34 748.907 1135.31 749.286C1121.09 754.428 1104.82 755.934 1093.22 765.78C1078.48 778.191 1067.71 797.468 1051.38 818.88ZM1042.75 1410.92C1053.94 1423.89 1092.78 1449.13 1107.84 1450.26C1123.63 1451.44 1139.74 1451.03 1155.34 1448.17C1164.22 1446.54 1172.76 1439.37 1180.74 1433.27C1193.59 1423.41 1204.86 1409.11 1217.16 1400.51C1233.57 1389.01 1245.94 1378.38 1250.03 1355.13C1251.2 1348.4 1263.5 1345.47 1255.84 1335.56C1250.79 1329.03 1246.61 1320.6 1236.95 1320.57C1222.83 1320.56 1208.68 1316.65 1194.61 1316.98C1160.76 1317.71 1127.94 1321.67 1094.78 1335.64C1069.81 1346.13 1049.48 1359.17 1032.51 1382.82C1027.8 1389.35 1026.94 1393.93 1032.79 1399.6C1036.32 1402.95 1039.45 1407.07 1042.75 1410.92ZM863.963 1162.49C864.799 1165.35 865.089 1170.64 867.384 1173.36C883.554 1192.74 898.883 1213.77 917.042 1229.91C930.24 1241.64 946.917 1248.83 962.874 1254.13C989.93 1263.09 1018.03 1259.54 1045.51 1256.47C1056.24 1255.25 1069.5 1248.31 1075.92 1238.4C1083.95 1226 1087.44 1208.09 1089.65 1191.9C1090.1 1188.46 1076.53 1182.27 1069.48 1177.14C1049.13 1162.33 1026.15 1157.79 1003.55 1152.41C995.972 1150.6 987.192 1155.23 980.021 1152.58C942.354 1138.79 905.869 1156.41 868.803 1157.53C867.951 1157.61 867.138 1159.18 863.963 1162.49ZM972.385 787.784C980.329 770.872 996.019 758.837 1004.26 735.679C1027.24 671.043 1035.6 604.393 1035.32 535.004C1035.29 527.87 1034.57 525.983 1028.25 530.1C1002.02 547.208 984.975 576.347 964.87 601.512C964.959 621.412 949.579 632.459 946.491 650.907C943.535 668.562 937.297 685.407 934.464 703.094C928.137 742.362 930.481 782.189 932.332 821.811C932.412 823.723 941.084 827.85 942.327 826.411C952.182 815.019 961.244 802.457 972.385 787.784ZM753.858 866.143C755.357 873.407 754.971 882.022 758.24 885.836C775.78 906.325 786.601 933.35 805.222 953.233C849.989 1001.04 899.509 1027.59 959.721 1017.48C965.153 1016.55 967.834 1016.52 963.824 1008.79C958.756 999.075 955.002 988.333 950.261 978.305C943.456 963.89 939.001 943.749 928.729 936.718C907.75 922.299 886.931 907.01 865.05 894.241C832.677 875.351 798.845 867.223 763.612 864.97C760.711 864.784 757.716 865.653 753.858 866.143ZM1154.66 965.209C1153.35 968.641 1148.22 978.795 1145.49 989.906C1139.97 1012.21 1135.04 1034.82 1131.18 1057.65C1127.48 1079.58 1134.36 1101.54 1150.95 1108.77C1160.94 1113.15 1168.79 1118.66 1175.36 1127.38C1182.15 1136.42 1186.48 1133.1 1191.34 1125.47C1193.42 1122.2 1196.84 1119.81 1198.14 1116.19C1219.93 1057.01 1235.84 996.106 1233.27 929.999C1232.61 912.638 1227.4 907.924 1214.43 912.266C1208.51 914.264 1165.83 950.498 1154.66 965.209ZM850.19 776.156C856.558 779.585 864.283 783.637 871.953 787.878C875.695 789.946 879.322 792.319 883.007 794.54C882.862 788.95 883.262 783.226 882.451 777.813C881.09 768.816 878.486 760.093 877.155 751.095C874.825 735.302 874.249 718.951 870.681 703.62C866.942 687.581 860.787 672.389 855.299 657.059C852.342 648.801 848.751 640.831 845.104 633.013C829.744 600.196 813.994 567.657 794.842 537.881C792.968 534.988 789.49 533.661 786.754 531.628C786.171 534.994 785.04 538.38 785.067 541.759C785.169 607.963 805.804 667.874 824.043 728.217C829.08 744.955 840.473 758.777 850.19 776.156ZM1330.58 1273.5C1335.7 1265.11 1339.66 1255.83 1343.73 1246.88C1355.44 1221.14 1357.59 1192.55 1365.9 1166.2C1375.95 1134.3 1378.27 1101.61 1376.4 1068.07C1376.24 1065.37 1373.95 1062.84 1372.66 1060.26C1371 1061.98 1367.84 1063.75 1367.92 1065.37C1368.62 1083.21 1357.27 1091.92 1348.87 1101.83C1321.75 1133.92 1309.72 1176.68 1293.87 1216.66C1287.26 1233.37 1286.2 1249.97 1301.94 1262.23C1307.17 1266.31 1311.65 1273.53 1314.18 1280.57C1316.06 1285.79 1315.18 1291.83 1321.23 1285.58C1324.68 1282.03 1327.49 1277.56 1330.58 1273.5ZM1203.2 1249.98C1203.02 1250.18 1202.84 1250.37 1202.67 1250.6C1195.28 1242.07 1188.22 1233.04 1180.4 1225.23C1176.46 1221.33 1171.29 1218.42 1166.35 1217.11C1156.99 1214.66 1147.39 1213.65 1137.9 1212.07C1137.09 1223.22 1136.96 1234.57 1135.17 1245.46C1134.41 1250.18 1129.62 1253.67 1127.67 1258.33C1124.06 1267 1128.01 1271.35 1134.66 1271.39C1154.35 1271.4 1174.02 1268.26 1193.54 1274.92C1204.77 1278.72 1216.48 1280.29 1227.95 1282.88C1219.71 1271.9 1211.47 1260.92 1203.2 1249.98ZM1083.72 1048.04C1086.72 1036.84 1092.66 1023.61 1090.46 1021.07C1083.35 1012.79 1082.37 1027.96 1077.22 1030.04C1073.29 1031.62 1069.04 1032.02 1065.28 1033.97C1063.92 1034.66 1063.59 1038.31 1062.8 1040.6C1069.75 1043.1 1076.77 1045.61 1083.72 1048.04ZM1008.1 1071.71C1005.68 1068.91 1002.45 1063.26 1001.01 1063.88C996.306 1065.94 992.081 1069.94 988.131 1073.93C986.883 1075.18 987.157 1078.7 986.704 1081.19C995.924 1082.93 1005.11 1084.67 1014.36 1086.11C1014.45 1086.11 1015.85 1081.39 1015.15 1080.22C1013.24 1077.03 1010.49 1074.51 1008.1 1071.71Z"
            fill="rgba(55, 97, 175, 0.397)" fill-opacity="0.1" />
    </g>
</svg>