<svg width="62" height="50" viewBox="0 0 62 50" fill="none" xmlns="http://www.w3.org/2000/svg">
<path d="M47.3956 21.0175C47.3942 21.0071 47.3933 20.9966 47.3916 20.9864C47.3835 20.9354 47.3727 20.8845 47.3574 20.8342L47.3569 20.8326C47.3426 20.7856 47.3243 20.7392 47.3037 20.6933C47.2978 20.6802 47.2914 20.6676 47.285 20.6547C47.2688 20.6216 47.2507 20.589 47.231 20.5569C47.2225 20.5429 47.2142 20.5289 47.205 20.5151C47.2 20.5076 47.1961 20.4999 47.1909 20.4925C47.1702 20.4628 47.1474 20.4349 47.1244 20.4072C47.1201 20.402 47.1166 20.3966 47.1122 20.3916C47.0772 20.3506 47.0393 20.3126 46.9996 20.2766C46.9922 20.2698 46.984 20.2635 46.9763 20.2569C46.9418 20.227 46.906 20.1989 46.8687 20.1725C46.8592 20.1658 46.8499 20.1591 46.8401 20.1527C46.7902 20.1193 46.7387 20.0883 46.685 20.0613L26.0203 9.48265L37.9183 2.73521L57.8652 12.9462L49.4645 17.7102C48.8089 18.0819 48.6121 18.8619 49.0249 19.4522C49.4376 20.0427 50.3036 20.2199 50.9592 19.8481L61.3425 13.9598C61.76 13.7232 62.0087 13.3065 61.9974 12.8623C61.9864 12.4182 61.7172 12.0121 61.2882 11.7926L38.5745 0.165032C38.1252 -0.065129 37.5716 -0.0537598 37.134 0.194213L22.5525 8.46347C22.5495 8.46511 22.5464 8.46688 22.5435 8.46852L15.2571 12.6007C15.2537 12.6026 15.2503 12.6045 15.2471 12.6064L0.655619 20.8813C0.238186 21.1179 -0.0105057 21.5347 0.000715617 21.9788C0.0117967 22.423 0.280968 22.829 0.709902 23.0485L23.4238 34.6761C23.639 34.7864 23.878 34.8412 24.1168 34.8412C24.3768 34.8412 24.6362 34.7761 24.8642 34.6469L35.2475 28.7585C35.9031 28.3868 36.0999 27.6068 35.6871 27.0165C35.2746 26.426 34.4083 26.2487 33.7529 26.6206L24.08 32.106L4.1331 21.8948L16.0313 15.1472L37.3055 26.0378V40.4617C37.3055 40.9218 37.5831 41.3453 38.0303 41.5677C38.2417 41.6728 38.4751 41.7249 38.7082 41.7249C38.9682 41.7249 39.2277 41.6599 39.4555 41.5306L46.7513 37.3932C47.1592 37.1619 47.4067 36.7583 47.4067 36.3242V21.1654C47.4067 21.158 47.4053 21.1509 47.405 21.1434C47.4041 21.1015 47.401 21.0596 47.3956 21.0175ZM40.1108 38.1736V25.303C40.1108 24.8486 39.8399 24.4294 39.4012 24.2049L18.7244 13.6201L23.327 11.0099L43.2737 21.221L41.5273 22.2114C40.8716 22.583 40.6749 23.3631 41.0877 23.9534C41.3542 24.3349 41.8099 24.5437 42.276 24.5437C42.5313 24.5437 42.7899 24.4809 43.0219 24.3493L44.6012 23.4538V35.627L40.1108 38.1736Z" fill="rgba(55, 97, 175, 0.397)"/>
<path d="M59.848 16.8747L49.4646 22.763C48.809 23.1347 48.6122 23.9147 49.0251 24.505C49.2916 24.8865 49.7473 25.0953 50.2134 25.0953C50.4687 25.0953 50.7273 25.0326 50.9593 24.9009L61.3427 19.0126C61.9983 18.641 62.1951 17.8609 61.7823 17.2706C61.3696 16.6802 60.5035 16.5028 59.848 16.8747Z" fill="rgba(55, 97, 175, 0.397)"/>
<path d="M33.7527 31.6734L24.0798 37.1588L2.09601 25.9051C1.42302 25.5605 0.566269 25.7722 0.183483 26.379C-0.199304 26.9855 0.036203 27.7567 0.709762 28.1015L23.4236 39.729C23.6388 39.8393 23.8778 39.8941 24.1167 39.8941C24.3766 39.8941 24.6361 39.8291 24.864 39.6998L35.2474 33.8114C35.903 33.4398 36.0998 32.6597 35.687 32.0694C35.2745 31.4788 34.4082 31.3015 33.7527 31.6734Z" fill="rgba(55, 97, 175, 0.397)"/>
<path d="M59.848 21.9277L49.4646 27.816C48.809 28.1876 48.6122 28.9677 49.0251 29.558C49.2916 29.9395 49.7473 30.1483 50.2134 30.1483C50.4687 30.1483 50.7273 30.0855 50.9593 29.9539L61.3427 24.0655C61.9983 23.6939 62.1951 22.9139 61.7823 22.3236C61.3696 21.733 60.5035 21.5558 59.848 21.9277Z" fill="rgba(55, 97, 175, 0.397)"/>
<path d="M33.7527 36.7263L24.0798 42.2118L2.09601 30.958C1.42302 30.6134 0.566269 30.8251 0.183483 31.432C-0.199304 32.0385 0.036203 32.8097 0.709762 33.1544L23.4236 44.782C23.6388 44.8922 23.8778 44.9471 24.1167 44.9471C24.3766 44.9471 24.6361 44.882 24.864 44.7528L35.2474 38.8643C35.903 38.4927 36.0998 37.7126 35.687 37.1223C35.2745 36.5316 34.4082 36.3544 33.7527 36.7263Z" fill="rgba(55, 97, 175, 0.397)"/>
<path d="M59.848 26.9806L49.4646 32.8689C48.809 33.2405 48.6122 34.0206 49.0251 34.6109C49.2916 34.9924 49.7473 35.2012 50.2134 35.2012C50.4687 35.2012 50.7273 35.1384 50.9593 35.0068L61.3427 29.1185C61.9983 28.7468 62.1951 27.9668 61.7823 27.3765C61.3696 26.7861 60.5035 26.6088 59.848 26.9806Z" fill="rgba(55, 97, 175, 0.397)"/>
<path d="M33.7527 41.7793L24.0798 47.2647L2.09601 36.0109C1.42302 35.6663 0.566269 35.8781 0.183483 36.4849C-0.199304 37.0914 0.036203 37.8626 0.709762 38.2073L23.4236 49.8349C23.6388 49.9452 23.8778 50 24.1167 50C24.3766 50 24.6361 49.9349 24.864 49.8057L35.2474 43.9173C35.903 43.5456 36.0998 42.7656 35.687 42.1753C35.2745 41.5847 34.4082 41.4074 33.7527 41.7793Z" fill="rgba(55, 97, 175, 0.397)"/>
</svg>
